<svg xmlns="http://www.w3.org/2000/svg" viewBox="0 0 512 166" role="img" aria-label="Visa">
  <path fill="#1434CB" d="M158.723 22.062 139.349 133.742h-30.82L84.275 57.944c-2.33-8.902-4.355-12.196-11.463-15.964C61.563 37.344 48.146 33.36 35 30.442l-.753-8.38h53.05c6.777 0 12.863 4.533 14.403 12.348l9.343 49.58 23.033-61.928h30.647zm128.208 111.682h-29.052l17.917-111.68h29.052l-17.917 111.68zm47.661 0-28.529-111.68h27.664l1.828 25.055 20.808-29.054h31.787l-39.234 53.97 25.676 61.709h-39.96zm-103.638-81.08-11.013 60.262c-1.32 7.066 2.078 8.842 8.017 9.786l-7.707 36.832c-4.828 1.242-18.798 3.042-27.716 3.042-23.08 0-38.647-12.25-38.647-34.063 0-28.158 38.647-29.742 38.647-45.002 0-4.528-5.232-9.404-13.563-9.404-11.458 0-24.213 3.023-35.786 7.024l-4.898-28.125c9.058-2.131 26.375-5.556 44.142-5.556 23.458 0 39.225 11.413 39.225 28.204zm83.318 20.042c0-25.18-69.043-26.532-69.043-39.842 0-3.777 3.687-7.788 11.592-8.834 3.903-.58 14.712-.976 26.926.493-9.108 7.375-15.742 17.875-15.742 29.183 0 21.667 69.366 22.667 69.366 39.167 0 5-6.342 7.858-19.725 7.858-8.642 0-21.667-1.733-33.417-4.267l-8.667 29.017c10.792 2.583 24.025 4.25 37.833 4.25 33.333 0 55.333-17.333 55.333-42.042z"/>
</svg>
